HIERARCHY
ROOT Hips
{
	OFFSET -0.001795 -0.223333 0.028219
	CHANNELS 6 Xposition Yposition Zposition Zrotation Yrotation Xrotation 
	JOINT LeftUpLeg
	{
		OFFSET 0.069520 -0.091406 -0.006815
		CHANNELS 3 Zrotation Yrotation Xrotation
		JOINT LeftLeg
		{
			OFFSET 0.034277 -0.375199 -0.004496
			CHANNELS 3 Zrotation Yrotation Xrotation
			JOINT LeftFoot
			{
				OFFSET -0.013596 -0.397961 -0.043693
				CHANNELS 3 Zrotation Yrotation Xrotation
				JOINT LeftToe
				{
					OFFSET 0.026358 -0.055791 0.119288
					CHANNELS 3 Zrotation Yrotation Xrotation
					End Site
					{
						OFFSET 0.000000 0.000000 0.000000
					}
				}
			}
		}
	}
	JOINT RightUpLeg
	{
		OFFSET -0.067670 -0.090522 -0.004320
		CHANNELS 3 Zrotation Yrotation Xrotation
		JOINT RightLeg
		{
			OFFSET -0.038290 -0.382569 -0.008850
			CHANNELS 3 Zrotation Yrotation Xrotation
			JOINT RightFoot
			{
				OFFSET 0.015774 -0.398415 -0.042312
				CHANNELS 3 Zrotation Yrotation Xrotation
				JOINT RightToe
				{
					OFFSET -0.025372 -0.048144 0.123348
					CHANNELS 3 Zrotation Yrotation Xrotation
					End Site
					{
						OFFSET 0.000000 0.000000 0.000000
					}
				}
			}
		}
	}
	JOINT Spine
	{
		OFFSET -0.002533 0.108963 -0.026696
		CHANNELS 3 Zrotation Yrotation Xrotation
		JOINT Spine1
		{
			OFFSET 0.005487 0.135180 0.001092
			CHANNELS 3 Zrotation Yrotation Xrotation
			JOINT Spine2
			{
				OFFSET 0.001457 0.052922 0.025425
				CHANNELS 3 Zrotation Yrotation Xrotation
				JOINT Neck
				{
					OFFSET -0.002778 0.213870 -0.042857
					CHANNELS 3 Zrotation Yrotation Xrotation
					JOINT Head
					{
						OFFSET 0.005152 0.064970 0.051349
						CHANNELS 3 Zrotation Yrotation Xrotation
						End Site
						{
							OFFSET 0.000000 0.000000 0.000000
						}
					}
				}
				JOINT LeftShoulder
				{
					OFFSET 0.078845 0.121749 -0.034090
					CHANNELS 3 Zrotation Yrotation Xrotation
					JOINT LeftArm
					{
						OFFSET 0.090977 0.030469 -0.008868
						CHANNELS 3 Zrotation Yrotation Xrotation
						JOINT LeftForeArm
						{
							OFFSET 0.259612 -0.012772 -0.027456
							CHANNELS 3 Zrotation Yrotation Xrotation
							JOINT LeftHand
							{
								OFFSET 0.249234 0.008986 -0.001171
								CHANNELS 3 Zrotation Yrotation Xrotation
								End Site
								{
									OFFSET 0.000000 0.000000 0.000000
								}
							}
						}
					}
				}
				JOINT RightShoulder
				{
					OFFSET -0.081759 0.118833 -0.038615
					CHANNELS 3 Zrotation Yrotation Xrotation
					JOINT RightArm
					{
						OFFSET -0.096012 0.032551 -0.009143
						CHANNELS 3 Zrotation Yrotation Xrotation
						JOINT RightForeArm
						{
							OFFSET -0.253742 -0.013329 -0.021401
							CHANNELS 3 Zrotation Yrotation Xrotation
							JOINT RightHand
							{
								OFFSET -0.255298 0.007772 -0.005559
								CHANNELS 3 Zrotation Yrotation Xrotation
								End Site
								{
									OFFSET 0.000000 0.000000 0.000000
								}
							}
						}
					}
				}
			}
		}
	}
}
MOTION
Frames: 11
Frame Time: 0.050000
0.000000 0.768769 0.000000 3.641094 -8.666921 5.388167 37.480659 8.136606 -26.910542 -10.526722 5.196823 39.273449 2.529353 7.063046 7.267981 0.000000 0.000000 0.000000 -21.436023 -1.364352 -48.773441 20.218592 -10.393974 64.881659 -6.651310 -14.634897 -16.659100 0.000000 0.000000 0.000000 6.584499 -2.512158 32.165862 -5.059316 2.175031 -4.811055 -4.961220 2.542683 5.473019 5.809990 -1.718076 -21.251697 0.000000 0.000000 0.000000 -33.618065 -16.712837 8.922664 -28.345628 -9.230943 -1.566130 2.892080 -38.587312 0.571065 0.000000 0.000000 0.000000 19.150056 9.975833 3.668978 31.830265 22.832923 2.180182 -2.167724 48.998043 0.855001 0.000000 0.000000 0.000000 
0.053700 0.749530 0.019170 3.149276 -10.074165 5.123963 39.636147 8.459305 -24.345530 -4.911365 2.241440 36.064386 -2.985943 -1.913022 9.694450 0.000000 0.000000 0.000000 -28.833889 -3.648559 -49.124071 24.322664 -13.086308 63.035274 -5.904866 -12.634596 -13.768039 0.000000 0.000000 0.000000 5.264355 -1.950015 32.342893 -4.582828 1.837757 -8.292814 -4.676582 4.198724 7.637262 6.790215 -1.554987 -26.207448 0.000000 0.000000 0.000000 -39.840404 -13.909286 6.947107 -24.140697 -10.749154 -1.207178 -1.079237 -36.109009 1.786134 0.000000 0.000000 0.000000 14.342030 9.674661 3.680302 38.708992 22.840293 2.815519 -7.032182 49.373058 -1.085745 0.000000 0.000000 0.000000 
0.117099 0.739326 0.039293 0.685231 -10.827281 3.228300 38.613329 8.823993 -25.330127 -1.867214 1.236075 45.179727 -3.123528 -4.685770 3.650885 0.000000 0.000000 0.000000 -31.338085 -4.123039 -46.706170 24.190124 -12.607193 62.745886 -5.211898 -10.871297 -10.747343 0.000000 0.000000 0.000000 5.217929 -1.806061 30.777656 -3.046425 1.299659 -5.029491 -6.019900 5.722803 4.414803 9.122839 -2.656475 -24.835574 0.000000 0.000000 0.000000 -37.761025 -12.803224 4.679998 -25.143443 -9.382595 -1.061962 -6.013143 -34.073817 3.063082 0.000000 0.000000 0.000000 20.240971 8.695786 3.612973 34.594240 21.540694 2.040933 -3.125819 49.328416 0.752329 0.000000 0.000000 0.000000 
0.189978 0.734355 0.059864 -0.797753 -13.998876 1.841080 38.421091 9.327656 -23.915352 -2.242084 2.476109 52.485967 -1.306646 -4.331443 -3.404679 0.000000 0.000000 0.000000 -31.564399 -3.199818 -45.460327 19.019625 -7.289988 58.726492 -4.389667 -9.681738 -6.005376 0.000000 0.000000 0.000000 4.728323 -1.329864 28.991965 -4.022064 1.638234 -6.317816 -3.497955 7.241756 7.138403 9.505714 -3.093727 -24.699880 0.000000 0.000000 0.000000 -36.004022 -12.113178 4.678763 -28.158856 -10.211138 -1.256260 -8.043583 -35.176725 3.832593 0.000000 0.000000 0.000000 19.957729 7.562159 2.787395 35.681538 18.589591 1.211406 -0.853212 50.682010 1.716134 0.000000 0.000000 0.000000 
0.270411 0.738749 0.079411 -1.716663 -14.058134 0.887806 35.703225 8.697310 -24.672697 -3.507194 3.863245 57.315625 1.610614 -1.641186 -12.005351 0.000000 0.000000 0.000000 -32.408834 -2.880609 -39.756545 13.081593 -2.856311 50.033076 -3.024524 -8.331191 0.733685 0.000000 0.000000 0.000000 5.202585 -1.404459 26.789071 -4.704988 1.980306 -5.221391 -2.020428 7.834779 7.124571 9.379532 -3.482860 -21.809286 0.000000 0.000000 0.000000 -36.886476 -12.090957 4.505587 -28.660028 -9.846137 -1.289251 -10.491419 -35.888566 4.686028 0.000000 0.000000 0.000000 21.648739 5.702646 1.772995 35.206150 13.831129 -0.117467 1.638213 49.700116 2.787458 0.000000 0.000000 0.000000 
0.350796 0.757617 0.094799 -1.329240 -13.979390 -0.989586 30.850234 6.977010 -23.992673 -5.571778 5.766411 59.111946 3.344598 1.824727 -14.867962 0.000000 0.000000 0.000000 -35.128773 -2.815998 -33.710439 7.555586 -0.063079 40.548424 0.524004 -6.106212 14.549849 0.000000 0.000000 0.000000 4.444239 -1.186604 25.770487 -3.853679 1.693044 -3.447015 -0.892611 8.092845 7.644228 10.047401 -3.761935 -22.465708 0.000000 0.000000 0.000000 -35.311203 -12.609150 4.796604 -31.338465 -9.515106 -1.463154 -12.112304 -37.431267 5.429606 0.000000 0.000000 0.000000 22.582463 5.776333 1.829577 36.098443 10.729586 -0.986910 3.014075 49.587290 3.383855 0.000000 0.000000 0.000000 
0.422801 0.787297 0.105535 -1.394784 -15.000333 -2.129258 26.599959 5.227111 -21.000242 -9.177170 8.567666 56.220180 5.367417 7.762522 -15.624014 0.000000 0.000000 0.000000 -33.786052 -2.116315 -31.375848 4.053196 1.287928 34.677714 -1.576412 -12.154710 21.842909 0.000000 0.000000 0.000000 5.438240 -1.275402 23.647010 -4.954125 2.322601 -1.444665 -0.130066 8.158143 6.844257 9.529718 -3.965118 -19.788699 0.000000 0.000000 0.000000 -31.643874 -11.248533 3.949911 -35.417876 -9.213288 -1.708752 -12.670942 -38.536302 5.811796 0.000000 0.000000 0.000000 23.028608 4.579026 0.922448 37.562548 8.876768 -1.413518 7.970663 47.225303 5.205245 0.000000 0.000000 0.000000 
0.481315 0.819739 0.112538 -2.106836 -13.748078 -2.230857 21.754661 3.219082 -17.934259 -9.755809 7.828509 50.864508 5.368673 8.329617 -14.721681 0.000000 0.000000 0.000000 -31.177644 -1.818721 -29.757738 8.288660 -0.470135 34.731730 -5.690778 -17.527409 16.700839 0.000000 0.000000 0.000000 6.104789 -1.409640 21.686893 -3.541239 1.780296 1.012675 -0.705548 7.371278 5.016179 8.302351 -3.290381 -19.131703 0.000000 0.000000 0.000000 -29.912715 -10.671890 3.427339 -35.480431 -8.653803 -1.720457 -14.420768 -37.552001 6.209102 0.000000 0.000000 0.000000 22.845247 4.407736 0.786158 39.322884 7.654427 -1.677338 7.356894 43.765075 4.501994 0.000000 0.000000 0.000000 
0.527530 0.849994 0.118088 -2.378657 -13.235138 -2.966739 17.715482 1.857149 -14.087421 -9.345020 6.250554 43.622129 5.211849 8.257813 -14.973308 0.000000 0.000000 0.000000 -26.361961 -1.222437 -29.754543 14.701131 -3.117411 41.439452 -7.706409 -20.006421 8.871458 0.000000 0.000000 0.000000 6.568548 -1.477384 21.283923 -3.371495 1.682408 0.786688 -0.106597 5.970294 5.381092 7.711630 -3.311709 -17.770632 0.000000 0.000000 0.000000 -27.800848 -8.772668 2.753572 -35.537640 -8.169224 -2.058340 -17.453435 -37.415870 7.335339 0.000000 0.000000 0.000000 21.253154 3.980794 0.236771 41.747661 7.604228 -1.666367 10.527073 42.368917 5.375211 0.000000 0.000000 0.000000 
0.565007 0.876992 0.123499 -2.570477 -13.381031 -3.127249 13.968253 0.912474 -9.421252 -7.888197 4.354231 35.556604 5.116812 9.104074 -12.304047 0.000000 0.000000 0.000000 -19.093257 0.030181 -29.386986 19.263583 -5.225179 45.001114 -8.611086 -21.377670 3.551203 0.000000 0.000000 0.000000 6.061185 -1.358990 20.776724 -1.640915 0.807784 0.591585 -1.236422 6.718188 4.953731 8.016605 -3.425862 -17.543804 0.000000 0.000000 0.000000 -24.585725 -7.352725 1.611342 -37.869845 -7.022037 -2.376834 -18.770558 -35.979971 7.386164 0.000000 0.000000 0.000000 21.657646 2.326503 -0.484558 43.404487 8.924571 -1.304381 13.404123 39.182098 5.997108 0.000000 0.000000 0.000000 
0.596080 0.900396 0.129102 -1.944619 -12.629859 -2.582441 9.839904 0.284200 -6.230433 -6.236374 2.658883 27.906423 4.902541 9.158653 -10.251858 0.000000 0.000000 0.000000 -10.920245 1.323879 -26.808212 18.774165 -4.933757 43.897844 -7.957106 -19.576324 -0.141622 0.000000 0.000000 0.000000 5.956453 -1.295687 18.880512 -2.019945 0.985856 0.320640 -0.673924 4.690408 5.502097 6.149520 -2.584132 -17.053171 0.000000 0.000000 0.000000 -25.104831 -4.830331 0.780832 -37.351260 -6.720782 -2.683276 -18.599530 -34.161629 7.121759 0.000000 0.000000 0.000000 19.110804 2.351102 -0.781702 47.908063 9.236765 -1.139709 14.454172 36.318144 5.649480 0.000000 0.000000 0.000000 
